<svg viewBox="0 0 120 120" fill="none" xmlns="http://www.w3.org/2000/svg">
  <defs>
    <linearGradient id="oc-bg" x1="14" y1="14" x2="106" y2="106" gradientUnits="userSpaceOnUse">
      <stop offset="0" stop-color="#14B8A6" />
      <stop offset="1" stop-color="#0F766E" />
    </linearGradient>
  </defs>
  <rect x="8" y="8" width="104" height="104" rx="30" fill="url(#oc-bg)" />
  <g transform="translate(18 18) scale(3.5)" fill="#ECFEFF">
    <path
      d="M12 2a2 2 0 0 1 2 2c0 .74-.4 1.39-1 1.73V7h1a7 7 0 0 1 7 7h1a1 1 0 0 1 1 1v3a1 1 0 0 1-1 1h-1v1a2 2 0 0 1-2 2H5a2 2 0 0 1-2-2v-1H2a1 1 0 0 1-1-1v-3a1 1 0 0 1 1-1h1a7 7 0 0 1 7-7h1V5.73c-.6-.34-1-.99-1-1.73a2 2 0 0 1 2-2z"
    />
    <circle cx="8" cy="14" r="1.2" fill="#0F766E" />
    <circle cx="16" cy="14" r="1.2" fill="#0F766E" />
  </g>
</svg>
